<?xml version="1.0" standalone="no"?><!DOCTYPE svg PUBLIC "-//W3C//DTD SVG 1.1//EN" "http://www.w3.org/Graphics/SVG/1.1/DTD/svg11.dtd"><svg t="1727702241828" class="icon" viewBox="0 0 1024 1024" version="1.1" xmlns="http://www.w3.org/2000/svg" p-id="35323" xmlns:xlink="http://www.w3.org/1999/xlink" width="200" height="200"><path d="M123.1872 864.256c4.437333 1.706667 8.874667 2.730667 13.312 2.730667 8.533333 0 17.408-3.413333 23.893333-9.557334l46.762667-45.397333 46.421333 45.397333c13.312 12.629333 34.474667 12.629333 47.786667 0l46.421333-45.397333 47.104 45.397333c12.970667 12.629333 34.133333 12.629333 47.445334 0l46.421333-45.397333 46.421333 45.397333a34.269867 34.269867 0 1 0 58.026667-24.576V654.336c34.645333 42.325333 79.872 67.720533 130.184533 67.720533 111.138133 0 198.2464-124.074667 198.2464-282.5216s-87.108267-282.5216-198.2464-282.5216L306.141867 156.9792c-112.298667 0-203.776 91.136-203.776 203.434667V832.853333c0 13.653333 8.192 25.941333 20.821333 31.402667z m471.04-449.194667c5.7344-83.114667 52.565333-189.781333 129.160533-189.781333C793.838933 225.28 853.333333 323.4816 853.333333 439.6032s-59.528533 214.254933-129.979733 214.254933c-94.5152 0-142.2336-159.197867-129.160533-238.7968z" p-id="35324" fill="#d4237a"></path><path d="M723.285333 582.485333c40.311467 0 73.045333-63.931733 73.045334-142.916266s-32.733867-142.916267-73.045334-142.916267-73.284267 63.931733-73.284266 142.916267 32.904533 142.916267 73.250133 142.916266z" p-id="35325" fill="#d4237a"></path></svg>